# xmcd
#
# Track frame offsets:
# 150
# 11852
# 23787
# 46968
# 56667
# 69642
# 81857
# 93310
# 103962
# 115456
#
# Disc length: 1708 seconds
#
# Revision: 0
# Processed by: cddbd v1.4PL0 Copyright (c) Steve Scherf et al.
# Submitted via: Axialis_AX_CDPlayer 2.6
#
DISCID=8706aa0a
DTITLE=Dolly Parton - Bargain Store
DYEAR=1900
DGENRE=
TTITLE0=Bargain Store
TTITLE1=Kentucky Gambler
TTITLE2=When I'm Gone
TTITLE3=The Only Hand You'll Need To Hold
TTITLE4=On My Mind Again
TTITLE5=I Want To Be What You Need
TTITLE6=Love To Remember
TTITLE7=You'll Always Be Special To Me
TTITLE8=He Would Know
TTITLE9=I'll Never Forget
EXTD=
EXTT0=
EXTT1=
EXTT2=
EXTT3=
EXTT4=
EXTT5=
EXTT6=
EXTT7=
EXTT8=
EXTT9=
PLAYORDER=
